HIERARCHY
ROOT Hips
{
  OFFSET 2.11349 39.5137 -3.81104
  CHANNELS 6 Xposition Yposition Zposition Zrotation Xrotation Yrotation
  JOINT Chest
  {
    OFFSET 0 4.57 0
    CHANNELS 6 Xposition Yposition Zposition Zrotation Xrotation Yrotation
    JOINT Chest2
    {
      OFFSET 0 6.57 0
      CHANNELS 6 Xposition Yposition Zposition Zrotation Xrotation Yrotation
      JOINT LeftCollar
      {
        OFFSET 1.06 4.19 1.76
        CHANNELS 6 Xposition Yposition Zposition Zrotation Xrotation Yrotation
        JOINT LeftShoulder
        {
          OFFSET 5.81 0 0
          CHANNELS 6 Xposition Yposition Zposition Zrotation Xrotation Yrotation
          JOINT LeftElbow
          {
            OFFSET 0 -12.08 0
            CHANNELS 6 Xposition Yposition Zposition Zrotation Xrotation Yrotation
            JOINT LeftWrist
            {
              OFFSET 0 -9.82 0
              CHANNELS 6 Xposition Yposition Zposition Zrotation Xrotation Yrotation
              End Site
              {
                OFFSET 0 -7.37 0
              }
            }
          }
        }
      }
      JOINT RightCollar
      {
        OFFSET -1.06 4.19 1.76
        CHANNELS 6 Xposition Yposition Zposition Zrotation Xrotation Yrotation
        JOINT RightShoulder
        {
          OFFSET -6.06 0 0
          CHANNELS 6 Xposition Yposition Zposition Zrotation Xrotation Yrotation
          JOINT RightElbow
          {
            OFFSET 0 -11.08 0
            CHANNELS 6 Xposition Yposition Zposition Zrotation Xrotation Yrotation
            JOINT RightWrist
            {
              OFFSET 0 -9.82 0
              CHANNELS 6 Xposition Yposition Zposition Zrotation Xrotation Yrotation
              End Site
              {
                OFFSET 0 -7.14001 0
              }
            }
          }
        }
      }
      JOINT Neck
      {
        OFFSET 0 4.05 0
        CHANNELS 6 Xposition Yposition Zposition Zrotation Xrotation Yrotation
        JOINT Head
        {
          OFFSET 0 5.19 0
          CHANNELS 6 Xposition Yposition Zposition Zrotation Xrotation Yrotation
          End Site
          {
            OFFSET 0 4.14001 0
          }
        }
      }
    }
  }
  JOINT LeftHip
  {
    OFFSET 3.43 0 0
    CHANNELS 6 Xposition Yposition Zposition Zrotation Xrotation Yrotation
    JOINT LeftKnee
    {
      OFFSET 0 -18.47 0
      CHANNELS 6 Xposition Yposition Zposition Zrotation Xrotation Yrotation
      JOINT LeftAnkle
      {
        OFFSET 0 -17.95 0
        CHANNELS 6 Xposition Yposition Zposition Zrotation Xrotation Yrotation
        End Site
        {
          OFFSET 0 -3.12 0
        }
      }
    }
  }
  JOINT RightHip
  {
    OFFSET -3.43 0 0
    CHANNELS 6 Xposition Yposition Zposition Zrotation Xrotation Yrotation
    JOINT RightKnee
    {
      OFFSET 0 -18.47 0
      CHANNELS 6 Xposition Yposition Zposition Zrotation Xrotation Yrotation
      JOINT RightAnkle
      {
        OFFSET 0 -17.95 0
        CHANNELS 6 Xposition Yposition Zposition Zrotation Xrotation Yrotation
        End Site
        {
          OFFSET 0 -3.12 0
        }
      }
    }
  }
}
MOTION
Frames:	10
Frame Time:	0.04
1.76429 40.7815 31.647 -0.965575 -1.74634 -1.816 4.44089e-016 4.57 -7.10543e-015 1.59443 2.02466 1.94368 1.19904e-014 6.57 0 -0.468417 2.22869 2.13598 1.06 4.19 1.76 -31.2075 4.28749 -13.0639 5.81 7.10543e-015 4.44089e-015 48.1201 -8.35478 -0.0882205 -1.3145e-013 -12.08 4.26326e-013 -14.1238 -9.18431 -32.8566 2.49401e-012 -9.82 2.38742e-012 7.81793 0.638701 -0.0436431 -1.06 4.19 1.76 20.5878 4.07498 16.5797 -6.06 1.42109e-014 -1.24345e-014 -32.7525 -4.77241 -1.45854 -3.51719e-013 -11.08 1.20792e-013 1.24566 -14.0558 26.4369 -4.00746e-012 -9.82 -1.87583e-012 2.82628 -0.423795 0.0104546 2.22045e-014 4.05 2.66454e-015 -8.60714 6.72517 -3.20063 9.76996e-014 5.19 1.19904e-014 8.55122 -10.3264 -7.5356 3.43 -3.55271e-014 8.88178e-016 -3.03447 -2.6247 0.224791 -1.35447e-013 -18.47 9.80549e-013 -2.82978 0.548166 1.52926 -8.0691e-013 -17.95 2.37321e-012 6.89727 2.50141 -0.150766 -3.43 -3.55271e-014 1.77636e-015 -8.21859 -12.0375 -6.01879 3.06422e-013 -18.47 7.24754e-013 2.72214e-007 56.9202 18.5833 -1.6076e-013 -17.95 -2.46025e-012 2.10505 8.40524 -0.1547 
1.80157 40.8609 32.886 -1.57272 -2.2226 -1.61074 4.44089e-016 4.57 -7.10543e-015 2.03929 2.43238 0.759446 1.19904e-014 6.57 0 0.398497 2.71376 0.829503 1.06 4.19 1.76 -31.9697 4.48965 -13.3757 5.81 7.10543e-015 4.44089e-015 50.1956 -13.3599 0.814047 -8.45546e-013 -12.08 -2.70006e-013 -13.8364 -9.39911 -32.9075 -1.12337e-011 -9.82 5.68434e-012 7.9521 0.711144 -0.0494299 -1.06 4.19 1.76 20.1468 3.96265 16.3821 -6.06 1.42109e-014 -1.24345e-014 -32.2722 -1.92241 -1.76565 -2.0961e-013 -11.08 -3.12639e-013 2.42041 -14.282 27.6882 -1.45661e-012 -9.82 -3.75877e-012 2.43216 0.0293446 -0.000622921 2.22045e-014 4.05 2.66454e-015 -9.96473 7.18456 -2.19037 9.76996e-014 5.19 1.19904e-014 8.69055 -9.58544 -7.04726 3.43 -3.55271e-014 8.88178e-016 -2.55438 -0.238483 0.0910173 -3.91909e-013 -18.47 -3.2685e-013 -2.81171 0.531902 1.63382 5.71099e-013 -17.95 -8.95284e-013 6.90093 1.06884 -0.0644472 -3.43 -3.55271e-014 1.77636e-015 -7.18502 -16.1852 -5.44799 1.20881e-012 -18.47 -1.49925e-012 -1.22474e-006 55.7921 16.059 6.12843e-014 -17.95 3.63087e-012 -0.134372 4.99317 0.00585881 
1.81326 40.9081 34.0563 -1.97058 -2.07137 -1.50248 4.44089e-016 4.57 -7.10543e-015 2.34169 2.53907 -0.388241 1.19904e-014 6.57 0 1.11336 2.8596 -0.438472 1.06 4.19 1.76 -32.2314 4.57302 -13.5203 5.81 7.10543e-015 4.44089e-015 51.7722 -17.9026 2.0466 -2.13163e-013 -12.08 0 -13.0055 -10.1461 -32.3304 -2.10321e-012 -9.82 1.36069e-012 6.94887 0.796755 -0.0483755 -1.06 4.19 1.76 19.5319 3.81302 16.1251 -6.06 1.42109e-014 -1.24345e-014 -32.1339 0.870144 -2.03758 -1.98952e-013 -11.08 -1.13687e-013 3.81196 -14.8809 27.9744 5.68434e-014 -9.82 -1.64135e-012 2.39126 0.154585 -0.00322631 2.22045e-014 4.05 2.66454e-015 -10.614 7.76217 -0.899246 9.76996e-014 5.19 1.19904e-014 8.71978 -9.61246 -6.1691 3.43 -3.55271e-014 8.88178e-016 -2.27526 1.43481 0.16681 -4.68514e-013 -18.47 3.19744e-013 -2.67112 0.493084 1.54159 -1.97042e-012 -17.95 6.32383e-013 7.03588 -0.53146 0.0326728 -3.43 -3.55271e-014 1.77636e-015 -5.95562 -19.841 -4.86794 -1.94955e-013 -18.47 5.25802e-013 -5.13001e-007 50.8265 12.9583 -1.35358e-012 -17.95 -5.82645e-013 -1.54681 3.2731 0.0441964 
1.79916 40.9089 35.2676 -2.29639 -1.87299 -1.3948 4.44089e-016 4.57 -7.10543e-015 2.60158 2.55261 -1.58521 1.19904e-014 6.57 0 1.8092 2.91227 -1.71588 1.06 4.19 1.76 -32.6544 4.62965 -13.5227 5.81 7.10543e-015 4.44089e-015 53.7674 -21.904 3.19211 8.52651e-014 -12.08 4.33431e-013 -12.305 -12.1399 -30.6885 4.47642e-012 -9.82 2.56506e-012 6.31254 0.872969 -0.0481391 -1.06 4.19 1.76 18.6656 3.63163 15.8756 -6.06 1.42109e-014 -1.24345e-014 -31.605 3.42716 -2.08026 -3.83693e-013 -11.08 2.20765e-014 4.27862 -15.0454 27.9826 -4.5759e-012 -9.82 -2.04636e-012 2.6715 0.0013893 -3.23949e-005 2.22045e-014 4.05 2.66454e-015 -11.947 7.78634 0.231449 9.76996e-014 5.19 1.19904e-014 8.90871 -10.0501 -5.43603 3.43 -3.55271e-014 8.88178e-016 -2.12363 3.11583 0.521571 -6.22613e-013 -18.47 7.67386e-013 -2.23231 0.410429 0.783195 -2.6974e-012 -17.95 1.9611e-012 6.77182 -2.21484 0.131055 -3.43 -3.55271e-014 1.77636e-015 -4.8218 -21.8433 -4.5366 7.08322e-014 -18.47 -2.70006e-013 -2.55995e-007 42.2338 10.3644 -1.66356e-012 -17.95 -5.82645e-013 -1.59676 2.03897 0.0284166 
1.73272 40.8783 36.4863 -2.66724 -1.34676 -1.3232 4.44089e-016 4.57 -7.10543e-015 2.86267 2.38269 -2.57695 1.19904e-014 6.57 0 2.41093 2.77149 -2.70124 1.06 4.19 1.76 -32.9367 4.65043 -13.4751 5.81 7.10543e-015 4.44089e-015 55.5281 -25.3163 3.79031 2.91323e-013 -12.08 1.13687e-013 -10.9673 -15.0865 -28.6399 4.64695e-012 -9.82 -8.2423e-013 5.63996 1.04958 -0.0517012 -1.06 4.19 1.76 18.1034 3.46865 15.4847 -6.06 1.42109e-014 -1.24345e-014 -31.6689 5.80843 -2.5363 2.38032e-013 -11.08 1.53717e-013 4.9701 -14.8627 28.322 4.85301e-012 -9.82 8.10019e-013 2.52309 0.179398 -0.00395063 2.22045e-014 4.05 2.66454e-015 -13.1042 7.36861 1.40512 9.76996e-014 5.19 1.19904e-014 9.52887 -10.0916 -4.74704 3.43 -3.55271e-014 8.88178e-016 -1.63522 4.41025 0.811857 4.08118e-013 -18.47 7.81597e-013 -2.19232 0.404036 0.52265 1.14575e-012 -17.95 1.74083e-012 6.58278 -3.71141 0.213513 -3.43 -3.55271e-014 1.77636e-015 -3.30614 -21.8017 -4.29214 2.68452e-013 -18.47 1.09424e-012 1.17097e-007 28.9458 9.34648 -1.4726e-012 -17.95 1.0516e-012 -1.58959 3.39411 0.0470992 
1.69717 40.6278 37.8722 -0.920207 -1.34939 -1.20154 4.44089e-016 4.57 -7.10543e-015 0.853534 2.12976 -3.49745 1.19904e-014 6.57 0 2.32818 2.44497 -3.33089 1.06 4.19 1.76 -33.2804 4.62516 -13.274 5.81 7.10543e-015 4.44089e-015 57.1052 -28.0153 3.18048 1.01055e-013 -12.08 7.81597e-014 -9.2728 -18.754 -25.198 6.82121e-013 -9.82 8.49099e-013 4.44624 1.40673 -0.0546124 -1.06 4.19 1.76 17.256 3.28271 15.1537 -6.06 1.42109e-014 -1.24345e-014 -31.5296 8.0151 -2.98482 -2.84217e-014 -11.08 2.76322e-013 5.4672 -14.6744 27.9954 -1.59162e-012 -9.82 8.56204e-013 2.20987 0.301685 -0.00581865 2.22045e-014 4.05 2.66454e-015 -14.0575 7.02117 2.32079 9.76996e-014 5.19 1.19904e-014 9.70427 -10.5633 -4.09974 3.43 -3.55271e-014 8.88178e-016 -3.30724 6.41376 0.627606 3.13971e-013 -18.47 -1.98952e-013 -2.33139 0.418439 0.866553 1.25766e-012 -17.95 -5.8975e-013 7.51262 -5.27298 0.346436 -3.43 -3.55271e-014 1.77636e-015 -4.16118 -18.2968 -5.37013 2.3892e-013 -18.47 1.01608e-012 0.467864 10.7151 10.2915 -4.13891e-013 -17.95 2.70006e-012 -0.0753172 6.89254 0.00453571 
1.6306 40.113 39.5263 1.63919 -1.5417 -0.23755 4.44089e-016 4.57 -7.10543e-015 -2.26307 1.36041 -4.73313 1.19904e-014 6.57 0 1.95932 1.52251 -3.83203 1.06 4.19 1.76 -33.598 4.65359 -13.2374 5.81 7.10543e-015 4.44089e-015 58.6367 -30.5948 2.31087 -2.31321e-013 -12.08 3.69482e-013 -7.45779 -21.6934 -21.8628 4.49063e-012 -9.82 1.54898e-012 3.98681 1.5618 -0.0543628 -1.06 4.19 1.76 16.4814 3.12337 14.8811 -6.06 1.42109e-014 -1.24345e-014 -30.9333 10.0205 -3.18061 -3.48166e-013 -11.08 3.8498e-013 5.29171 -14.0461 27.0265 -3.28981e-012 -9.82 -2.31992e-012 2.21787 0.419244 -0.00811536 2.22045e-014 4.05 2.66454e-015 -13.635 6.62981 2.61002 9.76996e-014 5.19 1.19904e-014 8.77087 -10.5695 -3.48813 3.43 -3.55271e-014 8.88178e-016 -5.59869 4.07032 0.994099 -1.18927e-012 -18.47 4.54747e-013 -2.23941 10.5985 0.164268 -4.8983e-012 -17.95 1.25056e-012 7.81196 -12.2793 0.841617 -3.43 -3.55271e-014 1.77636e-015 -6.75207 -17.3448 -5.04058 -5.41789e-013 -18.47 2.60769e-012 2.2896 0.304487 7.79656 -4.07585e-012 -17.95 7.14095e-012 0.181664 5.33773 -0.00846812 
1.52833 39.819 41.16 2.49956 -1.78973 1.08123 4.44089e-016 4.57 -7.10543e-015 -3.41432 0.99324 -5.85537 1.19904e-014 6.57 0 2.06119 1.1355 -4.44467 1.06 4.19 1.76 -33.7369 4.70006 -13.3173 5.81 7.10543e-015 4.44089e-015 59.6754 -33.0487 1.88133 -3.69482e-013 -12.08 2.84217e-014 -5.88164 -23.6241 -19.9413 -4.16378e-012 -9.82 2.5544e-012 4.22488 1.63952 -0.0604792 -1.06 4.19 1.76 16.0875 3.03653 14.7033 -6.06 1.42109e-014 -1.24345e-014 -30.3854 11.8609 -3.50555 -3.90799e-014 -11.08 4.74777e-013 4.78881 -13.0623 26.4159 -1.45661e-012 -9.82 -2.06057e-013 1.98335 0.351754 -0.00608879 2.22045e-014 4.05 2.66454e-015 -13.234 6.13466 2.7217 9.76996e-014 5.19 1.19904e-014 8.34656 -10.4038 -3.16344 3.43 -3.55271e-014 8.88178e-016 -5.96181 5.57819 1.85803 -1.15019e-013 -18.47 1.06581e-013 -1.99106 13.0955 -1.81699 -4.00124e-013 -17.95 3.90799e-014 7.66772 -14.7499 0.993913 -3.43 -3.55271e-014 1.77636e-015 -7.30273 -20.2079 -6.03524 -1.42997e-013 -18.47 5.18696e-013 2.2081 0.260244 5.78086 -9.51239e-013 -17.95 1.78346e-012 -0.417111 -1.21985 -0.0044404 
1.42173 39.6292 42.8376 3.08773 -2.19645 1.82566 4.44089e-016 4.57 -7.10543e-015 -3.90856 0.965614 -6.43464 1.19904e-014 6.57 0 2.01235 1.14926 -4.79015 1.06 4.19 1.76 -34.1149 4.74551 -13.3058 5.81 7.10543e-015 4.44089e-015 60.2788 -34.8137 1.44416 -7.10543e-015 -12.08 1.84741e-013 -4.62035 -25.0578 -18.585 1.91847e-013 -9.82 3.02336e-012 3.33345 1.5991 -0.0465337 -1.06 4.19 1.76 15.7122 2.97373 14.6345 -6.06 1.42109e-014 -1.24345e-014 -29.9764 13.3519 -3.84237 1.06581e-013 -11.08 5.40802e-013 4.78262 -11.8343 26.1515 9.45022e-013 -9.82 -7.88702e-013 2.06055 -0.129765 0.00233366 2.22045e-014 4.05 2.66454e-015 -13.391 5.90634 2.89803 9.76996e-014 5.19 1.19904e-014 8.74041 -10.6815 -3.15042 3.43 -3.55271e-014 8.88178e-016 -5.99588 8.42318 2.81195 -1.9007e-013 -18.47 1.54543e-013 -1.77591 13.2464 -3.56968 -9.22373e-013 -17.95 2.13163e-014 7.14608 -15.5395 0.976293 -3.43 -3.55271e-014 1.77636e-015 -7.08918 -21.3922 -6.1231 -5.21805e-014 -18.47 1.8332e-012 1.55281 0.192951 4.29847 -9.63674e-013 -17.95 5.84066e-012 -0.357019 -5.51261 -0.0171883 
1.27077 39.4746 44.5869 3.49524 -2.12756 2.27237 4.44089e-016 4.57 -7.10543e-015 -4.11251 0.854387 -6.66239 1.19904e-014 6.57 0 1.93245 1.04349 -5.06031 1.06 4.19 1.76 -34.6315 4.81037 -13.2976 5.81 7.10543e-015 4.44089e-015 60.2515 -35.4632 0.802257 -9.66338e-013 -12.08 4.12115e-013 -3.47483 -26.2556 -17.6059 -8.39862e-012 -9.82 6.02185e-012 2.78509 1.76953 -0.0430193 -1.06 4.19 1.76 15.6238 2.95946 14.6207 -6.06 1.42109e-014 -1.24345e-014 -29.4724 14.3117 -3.71613 -3.37508e-013 -11.08 5.78142e-013 4.1572 -10.0704 25.4856 -8.12861e-012 -9.82 -6.53699e-013 2.17611 -0.691415 0.0131318 2.22045e-014 4.05 2.66454e-015 -13.4237 5.76897 2.88135 9.76996e-014 5.19 1.19904e-014 8.51956 -10.6581 -3.11021 3.43 -3.55271e-014 8.88178e-016 -5.78575 10.7882 3.54955 -5.33351e-013 -18.47 2.20268e-013 -1.32574 13.4184 -5.34592 -1.35048e-012 -17.95 6.14619e-013 5.16813 -15.8448 0.719678 -3.43 -3.55271e-014 1.77636e-015 -6.84962 -21.0668 -5.59698 -6.73017e-013 -18.47 1.50635e-012 1.4418 0.184866 4.40884 -3.30314e-012 -17.95 4.00746e-012 1.25833 -5.88791 0.0647148 
